{
  "accessors": [
    {
      "bufferView": 2,
      "componentType": 5126,
      "count": 1936,
      "max": [
        31.225475311279297,
        2.869715929031372,
        29.908737182617188
      ],
      "min": [
        -33.63461685180664,
        -22.054386138916016,
        -17.73472023010254
      ],
      "type": "VEC3"
    },
    {
      "bufferView": 2,
      "byteOffset": 23232,
      "componentType": 5126,
      "count": 1936,
      "max": [
        0.9994981288909912,
        1.0,
        0.9839086532592773
      ],
      "min": [
        -0.996799111366272,
        -0.998799741268158,
        -0.9968189001083374
      ],
      "type": "VEC3"
    },
    {
      "bufferView": 1,
      "componentType": 5126,
      "count": 1936,
      "max": [
        0.999472975730896,
        0.9830319881439209
      ],
      "min": [
        0.00012199999764561653,
        0.000387999985832721
      ],
      "type": "VEC2"
    },
    {
      "bufferView": 0,
      "componentType": 5125,
      "count": 2976,
      "type": "SCALAR"
    },
    {
      "bufferView": 2,
      "byteOffset": 46464,
      "componentType": 5126,
      "count": 65532,
      "max": [
        31.225515365600586,
        2.869715929031372,
        29.908794403076172
      ],
      "min": [
        -33.63461685180664,
        -22.19324493408203,
        -17.73476219177246
      ],
      "type": "VEC3"
    },
    {
      "bufferView": 2,
      "byteOffset": 832848,
      "componentType": 5126,
      "count": 65532,
      "max": [
        1.0,
        0.9999947547912598,
        1.0
      ],
      "min": [
        -1.0,
        -1.0,
        -1.0
      ],
      "type": "VEC3"
    },
    {
      "bufferView": 1,
      "byteOffset": 15488,
      "componentType": 5126,
      "count": 65532,
      "max": [
        0.9994879961013794,
        0.9896240234375
      ],
      "min": [
        0.00012199999764561653,
        0.0003819999983534217
      ],
      "type": "VEC2"
    },
    {
      "bufferView": 0,
      "byteOffset": 11904,
      "componentType": 5125,
      "count": 272058,
      "type": "SCALAR"
    },
    {
      "bufferView": 2,
      "byteOffset": 1619232,
      "componentType": 5126,
      "count": 65532,
      "max": [
        16.26325035095215,
        -1.722133994102478,
        18.490121841430664
      ],
      "min": [
        -9.375330924987793,
        -16.30685806274414,
        -11.460123062133789
      ],
      "type": "VEC3"
    },
    {
      "bufferView": 2,
      "byteOffset": 2405616,
      "componentType": 5126,
      "count": 65532,
      "max": [
        0.9999987483024597,
        0.9997714161872864,
        0.999999463558197
      ],
      "min": [
        -0.9999984502792358,
        -0.9999920129776001,
        -0.9999905228614807
      ],
      "type": "VEC3"
    },
    {
      "bufferView": 1,
      "byteOffset": 539744,
      "componentType": 5126,
      "count": 65532,
      "max": [
        0.9996179938316345,
        0.9874269962310791
      ],
      "min": [
        0.00012199999764561653,
        0.0003699999942909926
      ],
      "type": "VEC2"
    },
    {
      "bufferView": 0,
      "byteOffset": 1100136,
      "componentType": 5125,
      "count": 262569,
      "type": "SCALAR"
    },
    {
      "bufferView": 2,
      "byteOffset": 3192000,
      "componentType": 5126,
      "count": 65532,
      "max": [
        11.261935234069824,
        -1.4360120296478271,
        17.37949562072754
      ],
      "min": [
        -15.29926586151123,
        -17.041154861450195,
        -17.108205795288086
      ],
      "type": "VEC3"
    },
    {
      "bufferView": 2,
      "byteOffset": 3978384,
      "componentType": 5126,
      "count": 65532,
      "max": [
        0.9999926686286926,
        0.9977777600288391,
        0.9999973773956299
      ],
      "min": [
        -0.9999840259552002,
        -1.0,
        -0.9999997615814209
      ],
      "type": "VEC3"
    },
    {
      "bufferView": 1,
      "byteOffset": 1064000,
      "componentType": 5126,
      "count": 65532,
      "max": [
        0.9995989799499512,
        0.9852290153503418
      ],
      "min": [
        0.00012199999764561653,
        0.000371000001905486
      ],
      "type": "VEC2"
    },
    {
      "bufferView": 0,
      "byteOffset": 2150412,
      "componentType": 5125,
      "count": 242832,
      "type": "SCALAR"
    },
    {
      "bufferView": 2,
      "byteOffset": 4764768,
      "componentType": 5126,
      "count": 65532,
      "max": [
        10.806953430175781,
        -1.7158279418945313,
        19.280176162719727
      ],
      "min": [
        -17.367259979248047,
        -19.772151947021484,
        -9.567011833190918
      ],
      "type": "VEC3"
    },
    {
      "bufferView": 2,
      "byteOffset": 5551152,
      "componentType": 5126,
      "count": 65532,
      "max": [
        0.9999815225601196,
        0.9992547631263733,
        0.9999984502792358
      ],
      "min": [
        -0.9999973773956299,
        -0.9999961256980896,
        -0.9999755024909973
      ],
      "type": "VEC3"
    },
    {
      "bufferView": 1,
      "byteOffset": 1588256,
      "componentType": 5126,
      "count": 65532,
      "max": [
        0.999625027179718,
        0.9866939783096313
      ],
      "min": [
        0.00012199999764561653,
        0.000371000001905486
      ],
      "type": "VEC2"
    },
    {
      "bufferView": 0,
      "byteOffset": 3121740,
      "componentType": 5125,
      "count": 219471,
      "type": "SCALAR"
    },
    {
      "bufferView": 2,
      "byteOffset": 6337536,
      "componentType": 5126,
      "count": 65532,
      "max": [
        28.721900939941406,
        -1.8563690185546875,
        29.071664810180664
      ],
      "min": [
        -16.389972686767578,
        -22.1932430267334,
        -6.112106800079346
      ],
      "type": "VEC3"
    },
    {
      "bufferView": 2,
      "byteOffset": 7123920,
      "componentType": 5126,
      "count": 65532,
      "max": [
        0.9999446272850037,
        0.9999591112136841,
        0.9999998807907104
      ],
      "min": [
        -0.9999926686286926,
        -0.9999945163726807,
        -1.0
      ],
      "type": "VEC3"
    },
    {
      "bufferView": 1,
      "byteOffset": 2112512,
      "componentType": 5126,
      "count": 65532,
      "max": [
        0.9996020197868347,
        0.9896240234375
      ],
      "min": [
        0.00012199999764561653,
        0.0003659999929368496
      ],
      "type": "VEC2"
    },
    {
      "bufferView": 0,
      "byteOffset": 3999624,
      "componentType": 5125,
      "count": 244683,
      "type": "SCALAR"
    },
    {
      "bufferView": 2,
      "byteOffset": 7910304,
      "componentType": 5126,
      "count": 65532,
      "max": [
        23.917587280273438,
        -1.161057949066162,
        29.908777236938477
      ],
      "min": [
        -31.04845428466797,
        -20.37518310546875,
        -16.48280143737793
      ],
      "type": "VEC3"
    },
    {
      "bufferView": 2,
      "byteOffset": 8696688,
      "componentType": 5126,
      "count": 65532,
      "max": [
        0.9999983310699463,
        0.9977763295173645,
        0.9999966621398926
      ],
      "min": [
        -0.9999217391014099,
        -0.9999995231628418,
        -0.9999956488609314
      ],
      "type": "VEC3"
    },
    {
      "bufferView": 1,
      "byteOffset": 2636768,
      "componentType": 5126,
      "count": 65532,
      "max": [
        0.9996200203895569,
        0.9874269962310791
      ],
      "min": [
        0.00012199999764561653,
        0.00036800000816583633
      ],
      "type": "VEC2"
    },
    {
      "bufferView": 0,
      "byteOffset": 4978356,
      "componentType": 5125,
      "count": 235818,
      "type": "SCALAR"
    },
    {
      "bufferView": 2,
      "byteOffset": 9483072,
      "componentType": 5126,
      "count": 65532,
      "max": [
        28.739667892456055,
        -0.814054012298584,
        21.70855140686035
      ],
      "min": [
        -33.63461685180664,
        -22.137767791748047,
        -17.73472785949707
      ],
      "type": "VEC3"
    },
    {
      "bufferView": 2,
      "byteOffset": 10269456,
      "componentType": 5126,
      "count": 65532,
      "max": [
        0.999980092048645,
        0.996222734451294,
        0.9999904632568359
      ],
      "min": [
        -0.9999980926513672,
        -0.9999584555625916,
        -1.0
      ],
      "type": "VEC3"
    },
    {
      "bufferView": 1,
      "byteOffset": 3161024,
      "componentType": 5126,
      "count": 65532,
      "max": [
        0.9996060132980347,
        0.9859619736671448
      ],
      "min": [
        0.00012199999764561653,
        0.00036800000816583633
      ],
      "type": "VEC2"
    },
    {
      "bufferView": 0,
      "byteOffset": 5921628,
      "componentType": 5125,
      "count": 210921,
      "type": "SCALAR"
    },
    {
      "bufferView": 2,
      "byteOffset": 11055840,
      "componentType": 5126,
      "count": 65532,
      "max": [
        30.538421630859375,
        -2.405769109725952,
        13.244707107543945
      ],
      "min": [
        -15.086008071899414,
        -22.19324493408203,
        -17.12253761291504
      ],
      "type": "VEC3"
    },
    {
      "bufferView": 2,
      "byteOffset": 11842224,
      "componentType": 5126,
      "count": 65532,
      "max": [
        0.9999832510948181,
        0.9997820258140564,
        0.9999956488609314
      ],
      "min": [
        -0.9999833703041077,
        -1.0,
        -0.9999942183494568
      ],
      "type": "VEC3"
    },
    {
      "bufferView": 1,
      "byteOffset": 3685280,
      "componentType": 5126,
      "count": 65532,
      "max": [
        0.9996259808540344,
        0.9874269962310791
      ],
      "min": [
        0.00012199999764561653,
        0.000375000003259629
      ],
      "type": "VEC2"
    },
    {
      "bufferView": 0,
      "byteOffset": 6765312,
      "componentType": 5125,
      "count": 223212,
      "type": "SCALAR"
    },
    {
      "bufferView": 2,
      "byteOffset": 12628608,
      "componentType": 5126,
      "count": 65532,
      "max": [
        31.225446701049805,
        -3.5227301120758057,
        12.576675415039063
      ],
      "min": [
        10.378706932067871,
        -22.19324493408203,
        -16.914533615112305
      ],
      "type": "VEC3"
    },
    {
      "bufferView": 2,
      "byteOffset": 13414992,
      "componentType": 5126,
      "count": 65532,
      "max": [
        0.9998457431793213,
        0.999768853187561,
        0.999928891658783
      ],
      "min": [
        -0.9999607801437378,
        -0.9999989867210388,
        -0.9999655485153198
      ],
      "type": "VEC3"
    },
    {
      "bufferView": 1,
      "byteOffset": 4209536,
      "componentType": 5126,
      "count": 65532,
      "max": [
        0.9996280074119568,
        0.9888910055160522
      ],
      "min": [
        0.00012199999764561653,
        0.00037399999564513564
      ],
      "type": "VEC2"
    },
    {
      "bufferView": 0,
      "byteOffset": 7658160,
      "componentType": 5125,
      "count": 218367,
      "type": "SCALAR"
    },
    {
      "bufferView": 2,
      "byteOffset": 14201376,
      "componentType": 5126,
      "count": 46930,
      "max": [
        31.22547721862793,
        -0.8961179852485657,
        13.244707107543945
      ],
      "min": [
        -15.411784172058105,
        -21.317598342895508,
        -17.734594345092773
      ],
      "type": "VEC3"
    },
    {
      "bufferView": 2,
      "byteOffset": 14764536,
      "componentType": 5126,
      "count": 46930,
      "max": [
        0.9996986389160156,
        0.9960507750511169,
        0.9998423457145691
      ],
      "min": [
        -0.9999297857284546,
        -0.9999978542327881,
        -0.9999319911003113
      ],
      "type": "VEC3"
    },
    {
      "bufferView": 1,
      "byteOffset": 4733792,
      "componentType": 5126,
      "count": 46930,
      "max": [
        0.9996169805526733,
        0.9859619736671448
      ],
      "min": [
        0.00012199999764561653,
        0.00037399999564513564
      ],
      "type": "VEC2"
    },
    {
      "bufferView": 0,
      "byteOffset": 8531628,
      "componentType": 5125,
      "count": 147231,
      "type": "SCALAR"
    }
  ],
  "asset": {
    "extras": {
      "author": "artfletch (https://sketchfab.com/artfletch)",
      "license": "CC-BY-4.0 (http://creativecommons.org/licenses/by/4.0/)",
      "source": "https://sketchfab.com/3d-models/wanstead-park-grotto-dc8b4f2a452246569bf24195e617db82",
      "title": "Wanstead Park Grotto"
    },
    "generator": "Sketchfab-16.16.0",
    "version": "2.0"
  },
  "bufferViews": [
    {
      "buffer": 0,
      "byteLength": 9120552,
      "name": "floatBufferViews",
      "target": 34963
    },
    {
      "buffer": 0,
      "byteLength": 5109232,
      "byteOffset": 9120552,
      "byteStride": 8,
      "name": "floatBufferViews",
      "target": 34962
    },
    {
      "buffer": 0,
      "byteLength": 15327696,
      "byteOffset": 14229784,
      "byteStride": 12,
      "name": "floatBufferViews",
      "target": 34962
    }
  ],
  "buffers": [
    {
      "byteLength": 29557480,
      "uri": "scene.bin"
    }
  ],
  "extensionsUsed": [
    "KHR_materials_unlit"
  ],
  "images": [
    {
      "uri": "textures/WansteadParkGrotto01_Model_4WansteadParkGrotto01_Model_4_u1_v1_baseColor.jpeg"
    }
  ],
  "materials": [
    {
      "doubleSided": true,
      "extensions": {
        "KHR_materials_unlit": {}
      },
      "name": "WansteadParkGrotto01_Model_4WansteadParkGrotto01_Model_4_u1_v1",
      "pbrMetallicRoughness": {
        "baseColorTexture": {
          "index": 0
        },
        "metallicFactor": 0.0
      }
    }
  ],
  "meshes": [
    {
      "name": "Object_0",
      "primitives": [
        {
          "attributes": {
            "NORMAL": 1,
            "POSITION": 0,
            "TEXCOORD_0": 2
          },
          "indices": 3,
          "material": 0,
          "mode": 4
        }
      ]
    },
    {
      "name": "Object_1",
      "primitives": [
        {
          "attributes": {
            "NORMAL": 5,
            "POSITION": 4,
            "TEXCOORD_0": 6
          },
          "indices": 7,
          "material": 0,
          "mode": 4
        }
      ]
    },
    {
      "name": "Object_2",
      "primitives": [
        {
          "attributes": {
            "NORMAL": 9,
            "POSITION": 8,
            "TEXCOORD_0": 10
          },
          "indices": 11,
          "material": 0,
          "mode": 4
        }
      ]
    },
    {
      "name": "Object_3",
      "primitives": [
        {
          "attributes": {
            "NORMAL": 13,
            "POSITION": 12,
            "TEXCOORD_0": 14
          },
          "indices": 15,
          "material": 0,
          "mode": 4
        }
      ]
    },
    {
      "name": "Object_4",
      "primitives": [
        {
          "attributes": {
            "NORMAL": 17,
            "POSITION": 16,
            "TEXCOORD_0": 18
          },
          "indices": 19,
          "material": 0,
          "mode": 4
        }
      ]
    },
    {
      "name": "Object_5",
      "primitives": [
        {
          "attributes": {
            "NORMAL": 21,
            "POSITION": 20,
            "TEXCOORD_0": 22
          },
          "indices": 23,
          "material": 0,
          "mode": 4
        }
      ]
    },
    {
      "name": "Object_6",
      "primitives": [
        {
          "attributes": {
            "NORMAL": 25,
            "POSITION": 24,
            "TEXCOORD_0": 26
          },
          "indices": 27,
          "material": 0,
          "mode": 4
        }
      ]
    },
    {
      "name": "Object_7",
      "primitives": [
        {
          "attributes": {
            "NORMAL": 29,
            "POSITION": 28,
            "TEXCOORD_0": 30
          },
          "indices": 31,
          "material": 0,
          "mode": 4
        }
      ]
    },
    {
      "name": "Object_8",
      "primitives": [
        {
          "attributes": {
            "NORMAL": 33,
            "POSITION": 32,
            "TEXCOORD_0": 34
          },
          "indices": 35,
          "material": 0,
          "mode": 4
        }
      ]
    },
    {
      "name": "Object_9",
      "primitives": [
        {
          "attributes": {
            "NORMAL": 37,
            "POSITION": 36,
            "TEXCOORD_0": 38
          },
          "indices": 39,
          "material": 0,
          "mode": 4
        }
      ]
    },
    {
      "name": "Object_10",
      "primitives": [
        {
          "attributes": {
            "NORMAL": 41,
            "POSITION": 40,
            "TEXCOORD_0": 42
          },
          "indices": 43,
          "material": 0,
          "mode": 4
        }
      ]
    }
  ],
  "nodes": [
    {
      "children": [
        1
      ],
      "matrix": [
        1.0,
        0.0,
        0.0,
        0.0,
        0.0,
        -1.0,
        -4.440892098500626e-16,
        0.0,
        0.0,
        4.440892098500626e-16,
        -1.0,
        0.0,
        0.0,
        0.0,
        0.0,
        1.0
      ],
      "name": "Sketchfab_model"
    },
    {
      "children": [
        2,
        3,
        4,
        5,
        6,
        7,
        8,
        9,
        10,
        11,
        12
      ],
      "name": "WansteadParkGrotto02.obj.cleaner.materialmerger.gles"
    },
    {
      "mesh": 0,
      "name": "Object_2"
    },
    {
      "mesh": 1,
      "name": "Object_3"
    },
    {
      "mesh": 2,
      "name": "Object_4"
    },
    {
      "mesh": 3,
      "name": "Object_5"
    },
    {
      "mesh": 4,
      "name": "Object_6"
    },
    {
      "mesh": 5,
      "name": "Object_7"
    },
    {
      "mesh": 6,
      "name": "Object_8"
    },
    {
      "mesh": 7,
      "name": "Object_9"
    },
    {
      "mesh": 8,
      "name": "Object_10"
    },
    {
      "mesh": 9,
      "name": "Object_11"
    },
    {
      "mesh": 10,
      "name": "Object_12"
    }
  ],
  "samplers": [
    {
      "magFilter": 9729,
      "minFilter": 9987,
      "wrapS": 10497,
      "wrapT": 10497
    }
  ],
  "scene": 0,
  "scenes": [
    {
      "name": "Sketchfab_Scene",
      "nodes": [
        0
      ]
    }
  ],
  "textures": [
    {
      "sampler": 0,
      "source": 0
    }
  ]
}
