{
  "accessors": [
    {
      "bufferView": 2,
      "componentType": 5126,
      "count": 65532,
      "max": [
        57.90389633178711,
        18.0448055267334,
        5.141866207122803
      ],
      "min": [
        18.52130889892578,
        -26.356996536254883,
        -9.291230201721191
      ],
      "type": "VEC3"
    },
    {
      "bufferView": 2,
      "byteOffset": 786384,
      "componentType": 5126,
      "count": 65532,
      "max": [
        0.9999648332595825,
        0.9999845027923584,
        0.9984558820724487
      ],
      "min": [
        -0.9999958276748657,
        -0.9999830722808838,
        -0.9999991655349731
      ],
      "type": "VEC3"
    },
    {
      "bufferView": 1,
      "componentType": 5126,
      "count": 65532,
      "max": [
        0.9999145269393921,
        0.9998776316642761
      ],
      "min": [
        0.0005396832711994648,
        0.0005313425790518522
      ],
      "type": "VEC2"
    },
    {
      "bufferView": 1,
      "byteOffset": 524256,
      "componentType": 5126,
      "count": 65532,
      "max": [
        0.9999145269393921,
        0.9998776316642761
      ],
      "min": [
        0.0005396832711994648,
        0.0005313425790518522
      ],
      "type": "VEC2"
    },
    {
      "bufferView": 0,
      "componentType": 5125,
      "count": 338457,
      "type": "SCALAR"
    },
    {
      "bufferView": 2,
      "byteOffset": 1572768,
      "componentType": 5126,
      "count": 65532,
      "max": [
        53.68166732788086,
        24.24283790588379,
        5.468790531158447
      ],
      "min": [
        2.180753707885742,
        -26.291934967041016,
        -6.921717166900635
      ],
      "type": "VEC3"
    },
    {
      "bufferView": 2,
      "byteOffset": 2359152,
      "componentType": 5126,
      "count": 65532,
      "max": [
        0.9999505877494812,
        0.9999912977218628,
        0.999965250492096
      ],
      "min": [
        -0.999970555305481,
        -0.999980092048645,
        -0.9999993443489075
      ],
      "type": "VEC3"
    },
    {
      "bufferView": 1,
      "byteOffset": 1048512,
      "componentType": 5126,
      "count": 65532,
      "max": [
        0.9999421834945679,
        0.9999572038650513
      ],
      "min": [
        0.0005063862772658467,
        0.0005341097712516785
      ],
      "type": "VEC2"
    },
    {
      "bufferView": 1,
      "byteOffset": 1572768,
      "componentType": 5126,
      "count": 65532,
      "max": [
        0.9999421834945679,
        0.9999572038650513
      ],
      "min": [
        0.0005063862772658467,
        0.0005341097712516785
      ],
      "type": "VEC2"
    },
    {
      "bufferView": 0,
      "byteOffset": 1353828,
      "componentType": 5125,
      "count": 332331,
      "type": "SCALAR"
    },
    {
      "bufferView": 2,
      "byteOffset": 3145536,
      "componentType": 5126,
      "count": 65532,
      "max": [
        25.93596839904785,
        23.77374839782715,
        5.436783790588379
      ],
      "min": [
        -27.354084014892578,
        -13.803056716918945,
        -5.856443405151367
      ],
      "type": "VEC3"
    },
    {
      "bufferView": 2,
      "byteOffset": 3931920,
      "componentType": 5126,
      "count": 65532,
      "max": [
        0.999984085559845,
        0.9999775290489197,
        0.9999964833259583
      ],
      "min": [
        -0.9999569654464722,
        -0.9999545216560364,
        -1.0
      ],
      "type": "VEC3"
    },
    {
      "bufferView": 1,
      "byteOffset": 2097024,
      "componentType": 5126,
      "count": 65532,
      "max": [
        0.9954190254211426,
        0.9901071190834045
      ],
      "min": [
        0.0005030992906540632,
        0.012047311291098595
      ],
      "type": "VEC2"
    },
    {
      "bufferView": 1,
      "byteOffset": 2621280,
      "componentType": 5126,
      "count": 65532,
      "max": [
        0.9954190254211426,
        0.9901071190834045
      ],
      "min": [
        0.0005030992906540632,
        0.012047311291098595
      ],
      "type": "VEC2"
    },
    {
      "bufferView": 0,
      "byteOffset": 2683152,
      "componentType": 5125,
      "count": 346668,
      "type": "SCALAR"
    },
    {
      "bufferView": 2,
      "byteOffset": 4718304,
      "componentType": 5126,
      "count": 65532,
      "max": [
        11.322842597961426,
        26.389711380004883,
        5.4001030921936035
      ],
      "min": [
        -48.56842041015625,
        -25.510604858398438,
        -4.949857234954834
      ],
      "type": "VEC3"
    },
    {
      "bufferView": 2,
      "byteOffset": 5504688,
      "componentType": 5126,
      "count": 65532,
      "max": [
        0.9998316168785095,
        0.9999814033508301,
        0.9996544122695923
      ],
      "min": [
        -0.9999827742576599,
        -0.9999847412109375,
        -0.9999998807907104
      ],
      "type": "VEC3"
    },
    {
      "bufferView": 1,
      "byteOffset": 3145536,
      "componentType": 5126,
      "count": 65532,
      "max": [
        0.9999026656150818,
        0.9999833106994629
      ],
      "min": [
        0.0005214394768700004,
        0.0005204445333220065
      ],
      "type": "VEC2"
    },
    {
      "bufferView": 1,
      "byteOffset": 3669792,
      "componentType": 5126,
      "count": 65532,
      "max": [
        0.9999026656150818,
        0.9999833106994629
      ],
      "min": [
        0.0005214394768700004,
        0.0005204445333220065
      ],
      "type": "VEC2"
    },
    {
      "bufferView": 0,
      "byteOffset": 4069824,
      "componentType": 5125,
      "count": 333126,
      "type": "SCALAR"
    },
    {
      "bufferView": 2,
      "byteOffset": 6291072,
      "componentType": 5126,
      "count": 65532,
      "max": [
        57.924007415771484,
        26.430824279785156,
        5.183574199676514
      ],
      "min": [
        -57.93498611450195,
        -19.79850959777832,
        -9.188069343566895
      ],
      "type": "VEC3"
    },
    {
      "bufferView": 2,
      "byteOffset": 7077456,
      "componentType": 5126,
      "count": 65532,
      "max": [
        0.999967634677887,
        0.9999873042106628,
        0.9982962012290955
      ],
      "min": [
        -0.9999778866767883,
        -0.9999856948852539,
        -1.0
      ],
      "type": "VEC3"
    },
    {
      "bufferView": 1,
      "byteOffset": 4194048,
      "componentType": 5126,
      "count": 65532,
      "max": [
        0.9998979568481445,
        0.9999811053276062
      ],
      "min": [
        0.0002165236510336399,
        0.0005285858060233295
      ],
      "type": "VEC2"
    },
    {
      "bufferView": 1,
      "byteOffset": 4718304,
      "componentType": 5126,
      "count": 65532,
      "max": [
        0.9998979568481445,
        0.9999811053276062
      ],
      "min": [
        0.0002165236510336399,
        0.0005285858060233295
      ],
      "type": "VEC2"
    },
    {
      "bufferView": 0,
      "byteOffset": 5402328,
      "componentType": 5125,
      "count": 329079,
      "type": "SCALAR"
    },
    {
      "bufferView": 2,
      "byteOffset": 7863840,
      "componentType": 5126,
      "count": 65532,
      "max": [
        51.40330505371094,
        7.479564666748047,
        5.149179935455322
      ],
      "min": [
        8.34460163116455,
        -26.35031509399414,
        -7.451513767242432
      ],
      "type": "VEC3"
    },
    {
      "bufferView": 2,
      "byteOffset": 8650224,
      "componentType": 5126,
      "count": 65532,
      "max": [
        0.9999929070472717,
        0.9999845027923584,
        0.9998146891593933
      ],
      "min": [
        -0.9999631643295288,
        -0.9999431371688843,
        -0.9999995827674866
      ],
      "type": "VEC3"
    },
    {
      "bufferView": 1,
      "byteOffset": 5242560,
      "componentType": 5126,
      "count": 65532,
      "max": [
        0.999987006187439,
        0.9999850988388062
      ],
      "min": [
        0.0002071451162919402,
        0.0005009722663089633
      ],
      "type": "VEC2"
    },
    {
      "bufferView": 1,
      "byteOffset": 5766816,
      "componentType": 5126,
      "count": 65532,
      "max": [
        0.999987006187439,
        0.9999850988388062
      ],
      "min": [
        0.0002071451162919402,
        0.0005009722663089633
      ],
      "type": "VEC2"
    },
    {
      "bufferView": 0,
      "byteOffset": 6718644,
      "componentType": 5125,
      "count": 286347,
      "type": "SCALAR"
    },
    {
      "bufferView": 2,
      "byteOffset": 9436608,
      "componentType": 5126,
      "count": 65532,
      "max": [
        53.85685348510742,
        24.72325325012207,
        5.13657808303833
      ],
      "min": [
        8.15367603302002,
        -26.34775733947754,
        -7.6868462562561035
      ],
      "type": "VEC3"
    },
    {
      "bufferView": 2,
      "byteOffset": 10222992,
      "componentType": 5126,
      "count": 65532,
      "max": [
        0.9999925494194031,
        0.9999352097511292,
        0.9999651312828064
      ],
      "min": [
        -0.9999566674232483,
        -0.9999850988388062,
        -0.9999998807907104
      ],
      "type": "VEC3"
    },
    {
      "bufferView": 1,
      "byteOffset": 6291072,
      "componentType": 5126,
      "count": 65532,
      "max": [
        0.9999796152114868,
        0.9999700784683228
      ],
      "min": [
        2.0180130377411842e-05,
        0.0004946915432810783
      ],
      "type": "VEC2"
    },
    {
      "bufferView": 1,
      "byteOffset": 6815328,
      "componentType": 5126,
      "count": 65532,
      "max": [
        0.9999796152114868,
        0.9999700784683228
      ],
      "min": [
        2.0180130377411842e-05,
        0.0004946915432810783
      ],
      "type": "VEC2"
    },
    {
      "bufferView": 0,
      "byteOffset": 7864032,
      "componentType": 5125,
      "count": 293529,
      "type": "SCALAR"
    },
    {
      "bufferView": 2,
      "byteOffset": 11009376,
      "componentType": 5126,
      "count": 65532,
      "max": [
        23.053232192993164,
        26.466550827026367,
        5.399724960327148
      ],
      "min": [
        -57.882652282714844,
        -25.361013412475586,
        -4.637232303619385
      ],
      "type": "VEC3"
    },
    {
      "bufferView": 2,
      "byteOffset": 11795760,
      "componentType": 5126,
      "count": 65532,
      "max": [
        0.9999727606773376,
        0.999981701374054,
        0.9998793005943298
      ],
      "min": [
        -0.9999880790710449,
        -0.9999817609786987,
        -0.9999992251396179
      ],
      "type": "VEC3"
    },
    {
      "bufferView": 1,
      "byteOffset": 7339584,
      "componentType": 5126,
      "count": 65532,
      "max": [
        0.9999147057533264,
        0.9999907612800598
      ],
      "min": [
        0.00020958890672773123,
        0.0005164834437891841
      ],
      "type": "VEC2"
    },
    {
      "bufferView": 1,
      "byteOffset": 7863840,
      "componentType": 5126,
      "count": 65532,
      "max": [
        0.9999147057533264,
        0.9999907612800598
      ],
      "min": [
        0.00020958890672773123,
        0.0005164834437891841
      ],
      "type": "VEC2"
    },
    {
      "bufferView": 0,
      "byteOffset": 9038148,
      "componentType": 5125,
      "count": 303471,
      "type": "SCALAR"
    },
    {
      "bufferView": 2,
      "byteOffset": 12582144,
      "componentType": 5126,
      "count": 65532,
      "max": [
        8.949543952941895,
        12.913125038146973,
        10.580465316772461
      ],
      "min": [
        -57.95455551147461,
        -26.2774715423584,
        -5.095905303955078
      ],
      "type": "VEC3"
    },
    {
      "bufferView": 2,
      "byteOffset": 13368528,
      "componentType": 5126,
      "count": 65532,
      "max": [
        0.9999865293502808,
        0.9999986886978149,
        0.9999651312828064
      ],
      "min": [
        -0.9999915957450867,
        -0.9999418258666992,
        -0.9999986290931702
      ],
      "type": "VEC3"
    },
    {
      "bufferView": 1,
      "byteOffset": 8388096,
      "componentType": 5126,
      "count": 65532,
      "max": [
        0.9999955296516418,
        0.999988853931427
      ],
      "min": [
        0.00020758406026288867,
        0.0001397918676957488
      ],
      "type": "VEC2"
    },
    {
      "bufferView": 1,
      "byteOffset": 8912352,
      "componentType": 5126,
      "count": 65532,
      "max": [
        0.9999955296516418,
        0.999988853931427
      ],
      "min": [
        0.00020758406026288867,
        0.0001397918676957488
      ],
      "type": "VEC2"
    },
    {
      "bufferView": 0,
      "byteOffset": 10252032,
      "componentType": 5125,
      "count": 279333,
      "type": "SCALAR"
    },
    {
      "bufferView": 2,
      "byteOffset": 14154912,
      "componentType": 5126,
      "count": 38927,
      "max": [
        25.57488441467285,
        24.035234451293945,
        5.418158531188965
      ],
      "min": [
        -16.991430282592773,
        -13.223849296569824,
        -5.906222343444824
      ],
      "type": "VEC3"
    },
    {
      "bufferView": 2,
      "byteOffset": 14622036,
      "componentType": 5126,
      "count": 38927,
      "max": [
        0.999979555606842,
        0.9999963045120239,
        0.9999841451644897
      ],
      "min": [
        -0.9999009966850281,
        -0.9999856352806091,
        -0.9999982714653015
      ],
      "type": "VEC3"
    },
    {
      "bufferView": 1,
      "byteOffset": 9436608,
      "componentType": 5126,
      "count": 38927,
      "max": [
        0.9999343156814575,
        0.9999722242355347
      ],
      "min": [
        0.00010265817400068045,
        0.0005301281344145536
      ],
      "type": "VEC2"
    },
    {
      "bufferView": 1,
      "byteOffset": 9748024,
      "componentType": 5126,
      "count": 38927,
      "max": [
        0.9999343156814575,
        0.9999722242355347
      ],
      "min": [
        0.00010265817400068045,
        0.0005301281344145536
      ],
      "type": "VEC2"
    },
    {
      "bufferView": 0,
      "byteOffset": 11369364,
      "componentType": 5125,
      "count": 157656,
      "type": "SCALAR"
    }
  ],
  "asset": {
    "extras": {
      "author": "Frank McMains (https://sketchfab.com/frankmcmains)",
      "license": "CC-BY-4.0 (http://creativecommons.org/licenses/by/4.0/)",
      "source": "https://sketchfab.com/3d-models/dolmenes-de-los-gabrieles-no-4-82499ab5c3c043669a90e3beb832487a",
      "title": "Dólmenes de los Gabrieles, No 4"
    },
    "generator": "Sketchfab-16.16.0",
    "version": "2.0"
  },
  "bufferViews": [
    {
      "buffer": 0,
      "byteLength": 11999988,
      "name": "floatBufferViews",
      "target": 34963
    },
    {
      "buffer": 0,
      "byteLength": 10059440,
      "byteOffset": 11999988,
      "byteStride": 8,
      "name": "floatBufferViews",
      "target": 34962
    },
    {
      "buffer": 0,
      "byteLength": 15089160,
      "byteOffset": 22059428,
      "byteStride": 12,
      "name": "floatBufferViews",
      "target": 34962
    }
  ],
  "buffers": [
    {
      "byteLength": 37148588,
      "uri": "scene.bin"
    }
  ],
  "extensionsUsed": [
    "KHR_materials_unlit"
  ],
  "images": [
    {
      "uri": "textures/material0_baseColor.jpeg"
    }
  ],
  "materials": [
    {
      "doubleSided": true,
      "extensions": {
        "KHR_materials_unlit": {}
      },
      "name": "material0",
      "pbrMetallicRoughness": {
        "baseColorTexture": {
          "index": 0
        },
        "metallicFactor": 0.0
      }
    }
  ],
  "meshes": [
    {
      "name": "Model_material0_0",
      "primitives": [
        {
          "attributes": {
            "NORMAL": 1,
            "POSITION": 0,
            "TEXCOORD_0": 2,
            "TEXCOORD_1": 3
          },
          "indices": 4,
          "material": 0,
          "mode": 4
        }
      ]
    },
    {
      "name": "Model_material0_0",
      "primitives": [
        {
          "attributes": {
            "NORMAL": 6,
            "POSITION": 5,
            "TEXCOORD_0": 7,
            "TEXCOORD_1": 8
          },
          "indices": 9,
          "material": 0,
          "mode": 4
        }
      ]
    },
    {
      "name": "Model_material0_0",
      "primitives": [
        {
          "attributes": {
            "NORMAL": 11,
            "POSITION": 10,
            "TEXCOORD_0": 12,
            "TEXCOORD_1": 13
          },
          "indices": 14,
          "material": 0,
          "mode": 4
        }
      ]
    },
    {
      "name": "Model_material0_0",
      "primitives": [
        {
          "attributes": {
            "NORMAL": 16,
            "POSITION": 15,
            "TEXCOORD_0": 17,
            "TEXCOORD_1": 18
          },
          "indices": 19,
          "material": 0,
          "mode": 4
        }
      ]
    },
    {
      "name": "Model_material0_0",
      "primitives": [
        {
          "attributes": {
            "NORMAL": 21,
            "POSITION": 20,
            "TEXCOORD_0": 22,
            "TEXCOORD_1": 23
          },
          "indices": 24,
          "material": 0,
          "mode": 4
        }
      ]
    },
    {
      "name": "Model_material0_0",
      "primitives": [
        {
          "attributes": {
            "NORMAL": 26,
            "POSITION": 25,
            "TEXCOORD_0": 27,
            "TEXCOORD_1": 28
          },
          "indices": 29,
          "material": 0,
          "mode": 4
        }
      ]
    },
    {
      "name": "Model_material0_0",
      "primitives": [
        {
          "attributes": {
            "NORMAL": 31,
            "POSITION": 30,
            "TEXCOORD_0": 32,
            "TEXCOORD_1": 33
          },
          "indices": 34,
          "material": 0,
          "mode": 4
        }
      ]
    },
    {
      "name": "Model_material0_0",
      "primitives": [
        {
          "attributes": {
            "NORMAL": 36,
            "POSITION": 35,
            "TEXCOORD_0": 37,
            "TEXCOORD_1": 38
          },
          "indices": 39,
          "material": 0,
          "mode": 4
        }
      ]
    },
    {
      "name": "Model_material0_0",
      "primitives": [
        {
          "attributes": {
            "NORMAL": 41,
            "POSITION": 40,
            "TEXCOORD_0": 42,
            "TEXCOORD_1": 43
          },
          "indices": 44,
          "material": 0,
          "mode": 4
        }
      ]
    },
    {
      "name": "Model_material0_0",
      "primitives": [
        {
          "attributes": {
            "NORMAL": 46,
            "POSITION": 45,
            "TEXCOORD_0": 47,
            "TEXCOORD_1": 48
          },
          "indices": 49,
          "material": 0,
          "mode": 4
        }
      ]
    }
  ],
  "nodes": [
    {
      "children": [
        1
      ],
      "matrix": [
        1.0,
        0.0,
        0.0,
        0.0,
        0.0,
        2.220446049250313e-16,
        -1.0,
        0.0,
        0.0,
        1.0,
        2.220446049250313e-16,
        0.0,
        0.0,
        0.0,
        0.0,
        1.0
      ],
      "name": "Sketchfab_model"
    },
    {
      "children": [
        2
      ],
      "matrix": [
        1.0,
        0.0,
        0.0,
        0.0,
        0.0,
        -1.0,
        0.0,
        0.0,
        0.0,
        0.0,
        -1.0,
        0.0,
        0.0,
        0.0,
        0.0,
        1.0
      ],
      "name": "model.fbx"
    },
    {
      "children": [
        3
      ],
      "name": "RootNode"
    },
    {
      "children": [
        4,
        5,
        6,
        7,
        8,
        9,
        10,
        11,
        12,
        13
      ],
      "name": "Model"
    },
    {
      "mesh": 0,
      "name": "Model_material0_0"
    },
    {
      "mesh": 1,
      "name": "Model_material0_0"
    },
    {
      "mesh": 2,
      "name": "Model_material0_0"
    },
    {
      "mesh": 3,
      "name": "Model_material0_0"
    },
    {
      "mesh": 4,
      "name": "Model_material0_0"
    },
    {
      "mesh": 5,
      "name": "Model_material0_0"
    },
    {
      "mesh": 6,
      "name": "Model_material0_0"
    },
    {
      "mesh": 7,
      "name": "Model_material0_0"
    },
    {
      "mesh": 8,
      "name": "Model_material0_0"
    },
    {
      "mesh": 9,
      "name": "Model_material0_0"
    }
  ],
  "samplers": [
    {
      "magFilter": 9729,
      "minFilter": 9987,
      "wrapS": 10497,
      "wrapT": 10497
    }
  ],
  "scene": 0,
  "scenes": [
    {
      "name": "Sketchfab_Scene",
      "nodes": [
        0
      ]
    }
  ],
  "textures": [
    {
      "sampler": 0,
      "source": 0
    }
  ]
}
